<?xml version="1.0" encoding="UTF-8"?>
<svg id="Layer_2" data-name="Layer 2" xmlns="http://www.w3.org/2000/svg" viewBox="0 0 50.34 60.27">
  <defs>
    <style>
      .cls-1 {
        fill: #0b0b0c;
      }

      .cls-2 {
        fill: #b92026;
      }

      .cls-3 {
        fill: #fefefe;
      }
    </style>
  </defs>
  <g id="Layer_1-2" data-name="Layer 1">
    <path class="cls-1" d="M46.8,18.48c-.1.11-1.82,1.02-2.07,1.1-3.1,1.1-6.67-1.8-6.11-5.02.06-.35.35-1.12.61-1.34.21-.17.47-.14.68-.33,3.25-2.8,5.86-5.93,5.24-10.52-.11-.79-.79-1.52-.12-2.37h.13c4.6,4.04,5.75,10.11,3,15.61-.29.58-1.01,1.43-1.18,1.92-.1.28-.02.75-.2.95Z"/>
    <path class="cls-1" d="M5.77,0c.05,1.15-.45,2.31-.54,3.44-.2,2.66,1.06,5.59,3.03,7.35.85.76,2.55,1.71,3.18,2.56,2.51,3.39-2.53,6.99-5.87,6.61-.69-.08-1.55-.67-1.96-1.21-.47-.63-1.17-2.41-1.45-3.2C.26,10.16.9,4.2,4.96,0h.81Z"/>
    <path class="cls-2" d="M11.44,13.36c1.55-.69,3.66-.33,5.29.04,2.97.66,5.44,2.19,7.47,4.41.3.33.75,1.3,1.2,1.23.07-.01.66-.92.82-1.09,2.66-2.86,6.01-4.72,9.99-4.99.92-.06,2.23-.13,3.04.27-.27.22-.55.99-.61,1.34-.57,3.23,3,6.13,6.11,5.02.24-.09,1.97-1,2.07-1.1,1.44,1.53,2.56,3.86,3.06,5.91,3.07,12.51-9.25,26.31-18.76,32.84-1.21.83-4.58,3.11-5.95,3.03-.81-.05-3.43-1.69-4.23-2.22C12.39,52.42,1.46,40.18.12,29.73c-.57-4.42.95-7.53,3.49-10.98.4.54,1.27,1.14,1.96,1.21,3.35.38,8.38-3.22,5.87-6.61ZM12.76,19.74c-7.73.75-9.84,8.47-7.33,14.94.51,1.31,2.43,5.02,3.93,5.13,1.31.09.66-1.8.46-2.49-.8-2.69-2.18-4.8-1.22-7.83,1.67-5.32,7.82-2.11,11.45-3.4,1.76-.62,2.14-2.6.97-4.01-1.59-1.93-5.9-2.55-8.26-2.32Z"/>
    <path class="cls-3" d="M12.76,19.74c2.35-.23,6.67.4,8.26,2.32,1.17,1.41.79,3.39-.97,4.01-3.63,1.28-9.78-1.92-11.45,3.4-.95,3.03.42,5.14,1.22,7.83.21.7.85,2.59-.46,2.49-1.5-.11-3.42-3.82-3.93-5.13-2.51-6.46-.41-14.18,7.33-14.94Z"/>
  </g>
</svg>